<svg id="图层_1" data-name="图层 1" xmlns="http://www.w3.org/2000/svg" viewBox="0 0 27.43 52.2"><path d="M27.84,22.33q.19,14.12-.1,28.23a1.13,1.13,0,0,0,2.25,0q.3-14.12.1-28.23a1.13,1.13,0,0,0-2.25,0Z" transform="translate(-16.52 -2.62)"/><path d="M29.46,36.16q-3-3.67-6.24-7.15-1.62-1.73-3.29-3.41c-.47-.46-1.26-.94-1.1-1.65a9.71,9.71,0,0,1,1.27-2.23l10-17.42-1.76.23c3.18,3.11,5.27,7,7.16,11,1,2.09,2,4.19,2.94,6.28L40,25.32a16.57,16.57,0,0,1,1.53,3.32c.23,1.15-1.24,2.11-2,2.86S37.82,33.2,36.93,34q-2.51,2.34-5.1,4.58-5.43,4.68-11.27,8.86a1.15,1.15,0,0,0,.27,2.06,31.24,31.24,0,0,1,8.42,5c1.1.92,2.7-.66,1.59-1.59a34.87,34.87,0,0,0-9.41-5.59l.27,2.06A165.71,165.71,0,0,0,40.34,33.89c1.15-1.11,3-2.38,3.49-4,.54-1.74-.94-3.81-1.64-5.31-1.74-3.73-3.43-7.48-5.23-11.17a36.66,36.66,0,0,0-7-10.51,1.14,1.14,0,0,0-1.77.23l-5.67,9.89c-1.83,3.19-3.8,6.34-5.5,9.61a2.78,2.78,0,0,0,.14,3.24,45.23,45.23,0,0,0,3.54,3.66c2.52,2.63,4.92,5.37,7.22,8.18.92,1.12,2.5-.48,1.59-1.59Z" transform="translate(-16.52 -2.62)"/><path d="M28.78,24.36c2.89,0,2.9-4.5,0-4.5s-2.9,4.5,0,4.5Z" transform="translate(-16.52 -2.62)"/></svg>